<svg width="202" height="42" viewBox="0 0 202 42" fill="none" xmlns="http://www.w3.org/2000/svg">
<g id="&#208;&#173;&#208;&#187;&#208;&#184;&#209;&#130; &#208;&#162;&#209;&#128;&#208;&#181;&#208;&#185;&#208;&#180; 1" clip-path="url(#clip0_12_1234)">
<g id="&#208;&#161;&#208;&#187;&#208;&#190;&#208;&#185;_x0020_1">
<g id="_1837680028464">
<path id="Vector" d="M125.867 37.012C125.793 37.012 125.728 36.9839 125.681 36.9371C125.635 36.8903 125.607 36.8248 125.607 36.75V35.7861C125.607 35.7112 125.635 35.6457 125.681 35.5989C125.728 35.5521 125.793 35.524 125.867 35.524H129.077C129.151 35.524 129.216 35.5521 129.263 35.5989C129.309 35.6457 129.337 35.7112 129.337 35.7861V36.75C129.337 36.8248 129.309 36.8903 129.263 36.9371C129.207 36.9839 129.151 37.012 129.077 37.012H125.867ZM115.029 39.3609C114.964 39.3609 114.917 39.3422 114.871 39.2954C114.824 39.2486 114.806 39.2018 114.806 39.1457C114.806 39.127 114.806 39.1083 114.815 39.0802C114.824 39.0615 114.834 39.0427 114.843 39.0147L117.076 35.6738L115.01 32.4826C114.992 32.4452 114.983 32.3984 114.983 32.3609C114.983 32.3048 115.001 32.258 115.048 32.2112C115.085 32.1644 115.141 32.1457 115.206 32.1457H116.694C116.797 32.1457 116.871 32.1738 116.927 32.2206C116.983 32.2767 117.02 32.3141 117.048 32.3609L118.267 34.2232L119.504 32.3609C119.532 32.3235 119.569 32.2767 119.625 32.2206C119.681 32.1644 119.755 32.1457 119.857 32.1457H121.272C121.327 32.1457 121.374 32.1644 121.42 32.2112C121.467 32.258 121.486 32.3048 121.486 32.3609C121.486 32.4077 121.476 32.4545 121.448 32.4826L119.374 35.6644L121.625 39.0147C121.634 39.0334 121.644 39.0521 121.653 39.0802C121.653 39.0989 121.662 39.1176 121.662 39.1457C121.662 39.2018 121.644 39.2486 121.597 39.2954C121.56 39.3422 121.504 39.3609 121.448 39.3609H119.923C119.82 39.3609 119.737 39.3329 119.681 39.2861C119.625 39.2299 119.588 39.1925 119.56 39.155L118.211 37.1804L116.871 39.155C116.853 39.1925 116.815 39.2299 116.759 39.2861C116.704 39.3422 116.629 39.3609 116.527 39.3609H115.048H115.029ZM105.847 39.3609C105.772 39.3609 105.707 39.3329 105.661 39.2861C105.614 39.2299 105.586 39.1738 105.586 39.1083V32.4077C105.586 32.3329 105.614 32.2673 105.661 32.2206C105.707 32.1738 105.772 32.1457 105.847 32.1457H110.629C110.703 32.1457 110.768 32.1738 110.815 32.2206C110.861 32.2673 110.889 32.3329 110.889 32.4077V33.381C110.889 33.4558 110.861 33.5214 110.815 33.5681C110.768 33.6149 110.703 33.643 110.629 33.643H107.363V35.0374H110.405C110.48 35.0374 110.545 35.0655 110.591 35.1123C110.638 35.1684 110.666 35.2246 110.666 35.2994V36.1978C110.666 36.2633 110.638 36.3288 110.591 36.3756C110.545 36.4318 110.48 36.4505 110.405 36.4505H107.363V37.8823H110.712C110.787 37.8823 110.852 37.9104 110.898 37.9572C110.945 38.004 110.973 38.0695 110.973 38.1444V39.1083C110.973 39.1738 110.945 39.2393 110.898 39.2861C110.852 39.3422 110.787 39.3609 110.712 39.3609H105.847ZM97.6973 39.3609C97.6228 39.3609 97.5577 39.3329 97.5112 39.2861C97.4647 39.2299 97.4368 39.1738 97.4368 39.1083V33.774H95.6134C95.5389 33.774 95.4738 33.746 95.4273 33.6992C95.3808 33.643 95.3529 33.5869 95.3529 33.5214V32.4171C95.3529 32.3422 95.3808 32.2767 95.4273 32.2299C95.4738 32.1831 95.5389 32.155 95.6134 32.155H101.121C101.195 32.155 101.26 32.1831 101.307 32.2299C101.353 32.2767 101.381 32.3422 101.381 32.4171V33.5214C101.381 33.5869 101.353 33.6524 101.307 33.6992C101.26 33.7553 101.195 33.774 101.121 33.774H99.2974V39.1083C99.2974 39.1738 99.2695 39.2393 99.223 39.2861C99.1765 39.3422 99.1114 39.3609 99.0369 39.3609H97.688H97.6973ZM86.7846 37.7139H88.9616V33.8021H87.2498V34.7379C87.2498 35.4585 87.2126 36.0668 87.1289 36.5534C87.0451 37.0401 86.9335 37.4331 86.7846 37.7139ZM84.4309 40.8021C84.3565 40.8021 84.2914 40.774 84.2449 40.7272C84.1891 40.6804 84.1704 40.6149 84.1704 40.5307V37.9665C84.1704 37.8917 84.1984 37.8262 84.2449 37.7794C84.3007 37.7326 84.3565 37.7045 84.4309 37.7045H84.617C84.7845 37.7045 84.9147 37.6296 85.0263 37.4706C85.138 37.3115 85.2217 37.0869 85.2961 36.7968C85.3613 36.5067 85.4171 36.1698 85.4357 35.7767C85.4636 35.3837 85.4729 34.9532 85.4729 34.4853V32.3984C85.4729 32.3235 85.5008 32.258 85.5473 32.2112C85.6031 32.1644 85.659 32.1363 85.7241 32.1363H90.5338C90.6082 32.1363 90.6734 32.1644 90.7199 32.2112C90.7664 32.258 90.7943 32.3235 90.7943 32.3984V37.7045H91.2781C91.3525 37.7045 91.4176 37.7326 91.4641 37.7794C91.52 37.8262 91.5386 37.8917 91.5386 37.9665V40.5307C91.5386 40.6056 91.5107 40.6711 91.4641 40.7179C91.4083 40.7647 91.3525 40.7927 91.2781 40.7927H89.957C89.8826 40.7927 89.8175 40.7647 89.771 40.7179C89.7244 40.6617 89.6965 40.6056 89.6965 40.5307V39.3516H86.0032V40.5307C86.0032 40.6056 85.9753 40.6711 85.9287 40.7179C85.8822 40.7647 85.8171 40.7927 85.7427 40.7927H84.4216L84.4309 40.8021ZM76.7558 37.508L74.0579 32.4732C74.0486 32.4452 74.0393 32.4171 74.0393 32.3796C74.0393 32.3235 74.0672 32.2767 74.1137 32.2206C74.1602 32.1738 74.216 32.1457 74.2905 32.1457H75.7045C75.779 32.1457 75.8348 32.1644 75.8813 32.2018C75.9278 32.2393 75.965 32.2954 76.0023 32.3609L77.7047 35.6925L76.7651 37.508H76.7558ZM75.3138 39.3609C75.2394 39.3609 75.1743 39.3329 75.1278 39.2861C75.0812 39.2299 75.0533 39.1738 75.0533 39.1083V38.0133C75.0533 37.9385 75.0812 37.873 75.1278 37.8262C75.1743 37.7794 75.2394 37.7513 75.3138 37.7513H75.7045C75.8906 37.7513 76.0488 37.7139 76.179 37.639C76.3093 37.5641 76.4302 37.4612 76.5325 37.3115C76.6349 37.1617 76.7465 36.9746 76.8488 36.7406L78.756 32.3609C78.7839 32.2861 78.8211 32.2299 78.8769 32.1925C78.9328 32.155 78.9886 32.1363 79.063 32.1363H80.4027C80.4678 32.1363 80.5143 32.155 80.5608 32.2018C80.6073 32.2486 80.6259 32.2954 80.6259 32.3516C80.6259 32.3796 80.6166 32.4077 80.6073 32.4452C80.598 32.4826 80.5887 32.5107 80.5701 32.5387L78.5327 37.246C78.3653 37.639 78.1978 37.9665 78.0396 38.2379C77.8815 38.5093 77.7047 38.7246 77.5094 38.8837C77.314 39.0521 77.0907 39.1644 76.8302 39.2393C76.5697 39.3141 76.2441 39.3516 75.8627 39.3516H75.3231L75.3138 39.3609ZM66.8386 37.2272C67.2852 37.2272 67.6387 37.1243 67.8806 36.9184C68.1225 36.7125 68.262 36.385 68.2806 35.9264C68.2899 35.8796 68.2899 35.8141 68.2899 35.7299C68.2899 35.6457 68.2899 35.5521 68.2899 35.4679C68.2899 35.3743 68.2899 35.3088 68.2806 35.262C68.2434 34.8128 68.1038 34.4759 67.862 34.27C67.6201 34.0641 67.2759 33.9612 66.8293 33.9612V37.2272H66.8386ZM65.0152 37.2272V33.9612C64.5779 33.9612 64.2337 34.0641 63.9918 34.27C63.75 34.4759 63.6104 34.8034 63.5732 35.262C63.5639 35.3837 63.5639 35.4866 63.5639 35.5989C63.5639 35.7018 63.5639 35.8141 63.5732 35.9358C63.5918 36.385 63.7314 36.7219 63.9732 36.9278C64.2244 37.1337 64.5686 37.2366 65.0152 37.2366V37.2272ZM65.2571 39.6885C65.192 39.6885 65.1268 39.6604 65.0803 39.6136C65.0245 39.5575 65.0059 39.5013 65.0059 39.4358V38.7246C63.9918 38.7246 63.2011 38.5 62.6336 38.0414C62.0661 37.5829 61.7498 36.8997 61.666 35.9919C61.666 35.9358 61.666 35.8609 61.6567 35.758C61.6567 35.655 61.6567 35.5615 61.6567 35.4585C61.6567 35.3556 61.666 35.2807 61.666 35.2339C61.7033 34.635 61.8521 34.1296 62.1312 33.7272C62.4103 33.3155 62.7917 33.0066 63.2848 32.8008C63.7779 32.5949 64.3547 32.4826 65.0059 32.4826V31.8837C65.0059 31.8181 65.0338 31.7526 65.0803 31.7058C65.1361 31.6497 65.192 31.631 65.2571 31.631H66.5874C66.6619 31.631 66.727 31.6591 66.7735 31.7058C66.82 31.762 66.8479 31.8181 66.8479 31.8837V32.4826C67.5084 32.4826 68.0852 32.5855 68.569 32.8008C69.0528 33.0066 69.4435 33.3155 69.7226 33.7272C70.0017 34.139 70.1599 34.635 70.1878 35.2339C70.1971 35.3837 70.2064 35.5147 70.2064 35.6083C70.2064 35.7112 70.1971 35.8329 70.1878 35.9919C70.1226 36.8997 69.8063 37.5829 69.2388 38.0414C68.6713 38.5 67.8806 38.7246 66.8479 38.7246V39.4358C66.8479 39.5013 66.82 39.5668 66.7735 39.6136C66.727 39.6698 66.6619 39.6885 66.5874 39.6885H65.2571ZM197.93 35.4211H199.13C199.428 35.4211 199.66 35.3462 199.828 35.1965C200.004 35.0468 200.088 34.8128 200.088 34.504C200.088 34.2419 200.014 34.0267 199.865 33.8489C199.716 33.6711 199.465 33.5775 199.13 33.5775H197.93V35.4211ZM196.311 39.3609C196.237 39.3609 196.171 39.3329 196.125 39.2861C196.078 39.2299 196.051 39.1738 196.051 39.1083V32.4077C196.051 32.3329 196.078 32.2673 196.125 32.2206C196.171 32.1738 196.237 32.1457 196.311 32.1457H199.176C199.744 32.1457 200.237 32.2299 200.656 32.4077C201.074 32.5855 201.4 32.8476 201.642 33.1938C201.874 33.5401 201.995 33.9893 201.995 34.5227C201.995 35.0468 201.874 35.4866 201.642 35.8329C201.409 36.1791 201.074 36.4318 200.656 36.5909C200.237 36.7593 199.744 36.8342 199.176 36.8342H197.958V39.0895C197.958 39.155 197.93 39.2206 197.883 39.2673C197.827 39.3235 197.772 39.3422 197.697 39.3422H196.311V39.3609ZM186.496 39.3609C186.422 39.3609 186.357 39.3329 186.31 39.2861C186.264 39.2299 186.236 39.1738 186.236 39.1083V32.4077C186.236 32.3329 186.264 32.2673 186.31 32.2206C186.357 32.1738 186.422 32.1457 186.496 32.1457H191.278C191.352 32.1457 191.418 32.1738 191.464 32.2206C191.511 32.2673 191.538 32.3329 191.538 32.4077V33.381C191.538 33.4558 191.511 33.5214 191.464 33.5681C191.418 33.6149 191.352 33.643 191.278 33.643H188.013V35.0374H191.055C191.129 35.0374 191.194 35.0655 191.241 35.1123C191.287 35.1684 191.315 35.2246 191.315 35.2994V36.1978C191.315 36.2633 191.287 36.3288 191.241 36.3756C191.194 36.4318 191.129 36.4505 191.055 36.4505H188.013V37.8823H191.362C191.436 37.8823 191.501 37.9104 191.548 37.9572C191.594 38.004 191.622 38.0695 191.622 38.1444V39.1083C191.622 39.1738 191.594 39.2393 191.548 39.2861C191.501 39.3422 191.436 39.3609 191.362 39.3609H186.496ZM175.593 39.3609C175.518 39.3609 175.453 39.3329 175.407 39.2861C175.36 39.2393 175.332 39.1738 175.332 39.0989V32.3984C175.332 32.3235 175.36 32.258 175.407 32.2112C175.453 32.1644 175.518 32.1363 175.593 32.1363H176.914C176.988 32.1363 177.053 32.1644 177.1 32.2112C177.156 32.258 177.174 32.3235 177.174 32.3984V34.8783H179.696V32.3984C179.696 32.3235 179.723 32.258 179.77 32.2112C179.816 32.1644 179.882 32.1363 179.956 32.1363H181.277C181.352 32.1363 181.417 32.1644 181.463 32.2112C181.51 32.258 181.538 32.3235 181.538 32.3984V39.0989C181.538 39.1644 181.51 39.2299 181.463 39.2767C181.417 39.3329 181.352 39.3516 181.277 39.3516H179.956C179.882 39.3516 179.816 39.3235 179.77 39.2767C179.723 39.2206 179.696 39.1644 179.696 39.0989V36.5347H177.174V39.0989C177.174 39.1644 177.146 39.2299 177.1 39.2767C177.044 39.3329 176.988 39.3516 176.914 39.3516H175.593V39.3609ZM167.443 39.3609C167.369 39.3609 167.304 39.3329 167.257 39.2861C167.211 39.2299 167.183 39.1738 167.183 39.1083V33.774H165.359C165.285 33.774 165.22 33.746 165.173 33.6992C165.127 33.643 165.099 33.5869 165.099 33.5214V32.4171C165.099 32.3422 165.127 32.2767 165.173 32.2299C165.22 32.1831 165.285 32.155 165.359 32.155H170.867C170.941 32.155 171.006 32.1831 171.053 32.2299C171.099 32.2767 171.127 32.3422 171.127 32.4171V33.5214C171.127 33.5869 171.099 33.6524 171.053 33.6992C171.006 33.7553 170.941 33.774 170.867 33.774H169.043V39.1083C169.043 39.1738 169.015 39.2393 168.969 39.2861C168.922 39.3422 168.857 39.3609 168.783 39.3609H167.434H167.443ZM157.284 35.4211H158.484C158.782 35.4211 159.015 35.3462 159.182 35.1965C159.359 35.0468 159.443 34.8128 159.443 34.504C159.443 34.2419 159.368 34.0267 159.219 33.8489C159.07 33.6711 158.819 33.5775 158.484 33.5775H157.284V35.4211ZM155.665 39.3609C155.591 39.3609 155.526 39.3329 155.479 39.2861C155.433 39.2299 155.405 39.1738 155.405 39.1083V32.4077C155.405 32.3329 155.433 32.2673 155.479 32.2206C155.526 32.1738 155.591 32.1457 155.665 32.1457H158.531C159.098 32.1457 159.591 32.2299 160.01 32.4077C160.429 32.5855 160.754 32.8476 160.996 33.1938C161.229 33.5401 161.35 33.9893 161.35 34.5227C161.35 35.0468 161.229 35.4866 160.996 35.8329C160.764 36.1791 160.429 36.4318 160.01 36.5909C159.591 36.7593 159.098 36.8342 158.531 36.8342H157.312V39.0895C157.312 39.155 157.284 39.2206 157.238 39.2673C157.182 39.3235 157.126 39.3422 157.052 39.3422H155.665V39.3609ZM146.799 36.6096H148.707L147.758 33.8863L146.809 36.6096H146.799ZM144.39 39.3609C144.334 39.3609 144.288 39.3422 144.241 39.2954C144.195 39.2486 144.176 39.2018 144.176 39.1457C144.176 39.1083 144.176 39.0802 144.185 39.0521L146.595 32.4358C146.613 32.3609 146.66 32.2954 146.725 32.2393C146.79 32.1831 146.883 32.155 146.995 32.155H148.511C148.623 32.155 148.716 32.1831 148.781 32.2393C148.846 32.2954 148.893 32.3609 148.911 32.4358L151.312 39.0521C151.321 39.0802 151.33 39.1083 151.33 39.1457C151.33 39.2018 151.312 39.2486 151.265 39.2954C151.218 39.3422 151.172 39.3609 151.107 39.3609H149.851C149.749 39.3609 149.674 39.3329 149.618 39.2861C149.563 39.2299 149.535 39.1925 149.525 39.1457L149.125 38.0976H146.39L145.999 39.1457C145.99 39.1831 145.953 39.2299 145.906 39.2861C145.86 39.3422 145.776 39.3609 145.664 39.3609H144.409H144.39ZM134.156 39.3609C134.082 39.3609 134.017 39.3329 133.97 39.2861C133.924 39.2393 133.896 39.1738 133.896 39.0989V32.3984C133.896 32.3235 133.924 32.258 133.97 32.2112C134.017 32.1644 134.082 32.1363 134.156 32.1363H139.841C139.915 32.1363 139.98 32.1644 140.027 32.2112C140.073 32.258 140.101 32.3235 140.101 32.3984V39.0989C140.101 39.1644 140.073 39.2299 140.027 39.2767C139.98 39.3329 139.915 39.3516 139.841 39.3516H138.52C138.445 39.3516 138.38 39.3235 138.334 39.2767C138.287 39.2206 138.259 39.1644 138.259 39.0989V33.7927H135.738V39.0989C135.738 39.1644 135.71 39.2299 135.664 39.2767C135.608 39.3329 135.552 39.3516 135.477 39.3516H134.156V39.3609Z" fill="#0C0C0D"/>
<path id="Vector_2" d="M23.6815 30.1902C23.1698 30.1902 22.6581 29.9937 22.2674 29.6006L10.2663 17.5284C9.4848 16.7423 9.4848 15.479 10.2663 14.6929C11.0477 13.9068 12.3037 13.9068 13.0851 14.6929L23.6815 25.3426L41.2645 7.65544C42.0459 6.86935 43.3019 6.86935 44.0833 7.65544C44.8648 8.44154 44.8648 9.70491 44.0833 10.491L25.0862 29.6006C24.6955 29.9937 24.1838 30.1902 23.6722 30.1902H23.6815ZM23.8861 42.0004C22.286 42.0004 20.6858 41.3921 19.4764 40.1661L15.7551 36.4228C15.7365 36.4135 15.7272 36.3947 15.7086 36.3854L3.60519 24.2103C-0.609151 19.9709 -0.367268 15.6568 0.581657 12.7931C1.56779 9.82656 3.52146 7.84261 3.60519 7.75838C5.78214 5.56854 8.68473 4.36132 11.7827 4.36132C14.8806 4.36132 17.7832 5.56854 19.9602 7.75838L23.8861 11.7076L34.8639 0.655442C35.5988 -0.0838626 36.8083 -0.233595 37.6083 0.430843C38.5386 1.19822 38.5852 2.57389 37.7572 3.40678L25.2816 15.9562C24.5001 16.7423 23.2442 16.7423 22.4627 15.9562L17.1227 10.5939C15.6993 9.16213 13.7922 8.37603 11.7641 8.37603C9.73599 8.37603 7.82884 9.16213 6.40545 10.5939C5.86586 11.1461 1.24218 16.1808 6.40545 21.3747L18.4717 33.5124C18.4903 33.5218 18.4996 33.5405 18.5182 33.5498L22.2767 37.3306C23.1605 38.2103 24.5839 38.2103 25.4584 37.3306L47.7395 14.9175C48.521 14.1314 49.7769 14.1314 50.5584 14.9175C51.3398 15.7036 51.3398 16.9669 50.5584 17.753L28.2772 40.1661C27.0585 41.3921 25.4584 42.0004 23.8675 42.0004H23.8861Z" fill="#F3223C"/>
<path id="Vector_3" fill-rule="evenodd" clip-rule="evenodd" d="M181.668 4.52062H176.43V7.08479H181.668V4.52062ZM151.535 17.3602C151.535 17.8749 151.321 18.3522 150.977 18.6984C150.642 19.0447 150.158 19.2599 149.647 19.2599H145.721C145.209 19.2599 144.725 19.0447 144.39 18.6984C144.046 18.3522 143.832 17.8749 143.832 17.3602V13.1396C143.832 12.6249 144.046 12.1476 144.39 11.8014C144.725 11.4551 145.209 11.2399 145.721 11.2399H149.647C150.158 11.2399 150.642 11.4551 150.977 11.8014C151.321 12.1476 151.535 12.6249 151.535 13.1396V17.3602ZM149.647 8.83479H146.456C145.404 8.83479 144.521 9.29335 143.832 10.042V8.88159H141.283V27.1958H143.832V20.4484C144.521 21.1597 145.414 21.5901 146.484 21.5901H149.647C150.865 21.5901 151.982 21.0942 152.782 20.28C153.591 19.4752 154.084 18.3522 154.084 17.1262V14.7586V13.3081C154.084 12.0821 153.591 10.9591 152.782 10.1543C151.972 9.34014 150.865 8.84415 149.647 8.84415V8.83479ZM75.984 9.07811C75.984 7.47784 75.3979 5.65298 73.9466 4.34282C72.8209 3.32276 71.2208 2.63025 69.0252 2.63025H61.7874V5.19442H68.8392C70.337 5.19442 71.3789 5.61554 72.0581 6.23319C72.9047 7.00057 73.2489 8.10485 73.2489 9.07811H73.2582V15.0674H73.2489C73.2489 16.0407 72.9047 17.145 72.0581 17.9123C71.3789 18.53 70.337 18.9511 68.8392 18.9511H61.7874V21.5153H69.0252C71.2208 21.5153 72.8302 20.8228 73.9466 19.8027C75.156 18.6984 75.77 17.2479 75.9375 15.8535C75.9747 15.5821 75.984 15.3201 75.984 15.0581H75.9747V9.06875H75.984V9.07811ZM131.096 21.5808H133.645V16.9204V12.1944V6.84148H131.096V21.5808ZM193.958 11.2305H198.005V19.2693H191.53L193.948 11.2305H193.958ZM200.554 19.2693V10.1824C200.554 9.47116 199.986 8.9003 199.279 8.9003H192.953C192.581 8.9003 192.246 9.05939 192.013 9.31207C191.874 9.4618 191.781 9.63961 191.725 9.84549L188.869 19.2693H187.501V21.6089H202.005V19.2693H200.554ZM184.078 8.97517H182.952C182.58 8.97517 182.208 9.14362 181.957 9.4618L175.305 17.9404V16.5835V8.9003H172.756V20.3736C172.756 21.0848 173.323 21.6556 174.03 21.6556H174.728H174.775H175.016C175.472 21.6556 175.863 21.4217 176.086 21.0661L182.794 12.5126V21.6089H185.343V16.4431V10.2573C185.343 9.54602 184.775 8.97517 184.068 8.97517H184.078ZM71.3975 11.0808H65.2388V13.645H71.3975V11.0808ZM107.624 11.2024H112.639V21.5808H115.188V11.2118V11.2024H118.397H120.23V9.35886V8.87223H107.624V11.2024ZM104.266 8.94709H103.14C102.768 8.94709 102.396 9.11554 102.145 9.43372L95.4928 17.8936V16.1155V8.86287H92.9437V20.3174C92.9437 21.0193 93.5112 21.5995 94.2182 21.5995H95.2137C95.6602 21.5995 96.0603 21.3655 96.2836 21.0099L102.991 12.4658V21.5621H105.54V11.5487V10.2105C105.54 9.49923 104.973 8.92838 104.266 8.92838V8.94709ZM86.1059 9.65832C85.9012 9.16233 85.4267 8.86287 84.9244 8.86287V8.85351H82.7567C82.4497 8.85351 82.1706 8.96581 81.9473 9.15298L81.7706 9.33078C81.6589 9.4618 81.5845 9.61153 81.5287 9.77998L76.8771 21.5808H79.6122L83.6219 11.427H84.0778L88.2177 21.5808H90.9621L87.9758 14.2626L86.0966 9.65832H86.1059ZM167.211 14.4966H159.508V13.1115C159.508 12.5875 159.722 12.1102 160.057 11.7639C160.401 11.427 160.876 11.2118 161.397 11.2118H165.322C165.834 11.2118 166.318 11.427 166.662 11.7639C166.997 12.1102 167.211 12.5875 167.211 13.1115V14.4966ZM168.458 10.1917C167.648 9.37757 166.541 8.88159 165.322 8.88159H161.397C160.169 8.88159 159.061 9.37757 158.261 10.1917C158.14 10.3134 158.038 10.4351 157.936 10.5567C157.322 11.3241 156.95 12.288 156.95 13.3455V17.1262C156.95 18.3522 157.452 19.4752 158.261 20.28C158.373 20.3923 158.494 20.4952 158.615 20.5982C159.368 21.2158 160.336 21.5901 161.397 21.5901H166.197C167.844 21.5901 168.839 20.4765 168.839 19.2599H161.397C160.876 19.2599 160.401 19.0447 160.057 18.7078C159.722 18.3615 159.508 17.6503 159.508 17.1356V16.8361H169.76V13.3548C169.76 13.1302 169.751 12.915 169.714 12.6998C169.565 11.7265 169.118 10.8562 168.458 10.1917ZM123.942 5.10084H140.827V2.64897H123.942V5.10084Z" fill="#0C0C0D"/>
</g>
</g>
</g>
<defs>
<clipPath id="clip0_12_1234">
<rect width="202" height="42" fill="white"/>
</clipPath>
</defs>
</svg>
