<svg width="44" height="44" viewBox="0 0 44 44" fill="none" xmlns="http://www.w3.org/2000/svg">
<g id="Add Button">
<rect id="Rectangle 28" width="44" height="44" rx="9" fill="#F3223C"/>
<g id="Group 2911">
<g id="Union">
<path fill-rule="evenodd" clip-rule="evenodd" d="M12 12.9091C12 12.407 12.407 12 12.9091 12H16.2149C16.6512 12 17.0259 12.3099 17.1078 12.7385L17.7938 16.329H31.0909C31.3605 16.329 31.6162 16.4487 31.7889 16.6557C31.9616 16.8627 32.0336 17.1357 31.9853 17.4009L30.6618 24.6715C30.5484 25.2695 30.2363 25.8153 29.7699 26.2086C29.3051 26.6007 28.7171 26.815 28.1076 26.8052H20.0907C19.4812 26.815 18.8933 26.6007 18.4284 26.2086C17.9621 25.8154 17.6501 25.2699 17.5367 24.672L16.1562 17.4463C16.1505 17.4222 16.1458 17.3977 16.1421 17.3728L15.463 13.8182H12.9091C12.407 13.8182 12 13.4112 12 12.9091ZM18.1412 18.1472L19.3229 24.3328C19.3607 24.532 19.4626 24.7024 19.6006 24.8187C19.7375 24.9342 19.9018 24.9905 20.0644 24.9872L20.0826 24.987H28.1157L28.1339 24.9872C28.2965 24.9905 28.4608 24.9342 28.5978 24.8187C28.7351 24.7029 28.8368 24.5335 28.8749 24.3354L28.8754 24.3328L30.0014 18.1472H18.1412Z" fill="white"/>
<path d="M22 30.1818C22 31.186 21.186 32 20.1818 32C19.1777 32 18.3636 31.186 18.3636 30.1818C18.3636 29.1777 19.1777 28.3636 20.1818 28.3636C21.186 28.3636 22 29.1777 22 30.1818Z" fill="white"/>
<path d="M28.3636 32C29.3678 32 30.1818 31.186 30.1818 30.1818C30.1818 29.1777 29.3678 28.3636 28.3636 28.3636C27.3595 28.3636 26.5454 29.1777 26.5454 30.1818C26.5454 31.186 27.3595 32 28.3636 32Z" fill="white"/>
</g>
</g>
</g>
</svg>
