<svg width="11" height="12" viewBox="0 0 11 12" fill="none" xmlns="http://www.w3.org/2000/svg">
<g id="Frame 1321314619">
<g clip-path="url(#clip0_0_1050)">
<path id="Subtract" fill-rule="evenodd" clip-rule="evenodd" d="M11 0.5H0V11.5H11V0.5ZM8.22616 8.20136C8.56249 7.69034 8.64393 7.11115 8.47047 6.4638C8.30276 5.83792 7.93945 5.39599 7.38051 5.13801C6.82466 4.8792 6.17775 4.84866 5.43976 5.04641L4.49354 5.29995C4.38685 5.32854 4.27718 5.26522 4.24859 5.15853L4.0685 4.48643C4.03991 4.37973 4.10323 4.27007 4.20992 4.24148L6.55829 3.61223C6.82503 3.54076 6.98332 3.2666 6.91185 2.99986L6.8069 2.60819C6.73543 2.34145 6.46126 2.18316 6.19452 2.25463L2.43609 3.2617C2.16935 3.33317 2.01106 3.60734 2.08253 3.87408L3.47369 9.06593C3.61663 9.59939 4.16496 9.91598 4.69843 9.77303L6.64123 9.25246C7.36069 9.05968 7.889 8.70932 8.22616 8.20136ZM5.27656 8.22224C5.16987 8.25083 5.0602 8.18751 5.03162 8.08082L4.68012 6.76904C4.65154 6.66234 4.71485 6.55268 4.82155 6.52409L5.41112 6.36611C5.76005 6.27262 6.04996 6.27386 6.28086 6.36982C6.51095 6.46272 6.66298 6.64723 6.73697 6.92336C6.81096 7.19948 6.77154 7.43529 6.61874 7.63078C6.46902 7.82545 6.22124 7.96912 5.8754 8.06178L5.27656 8.22224Z" fill="white"/>
</g>
</g>
<defs>
<clipPath id="clip0_0_1050">
<rect y="0.5" width="11" height="11" rx="5.5" fill="white"/>
</clipPath>
</defs>
</svg>
