<svg width="25" height="25" viewBox="0 0 25 25" fill="none" xmlns="http://www.w3.org/2000/svg">
<g id="25pt/Fill/Cart">
<g id="&#226;&#134;&#170;&#239;&#184;&#143; Icon Color">
<path d="M2 3.16667C2 2.52233 2.52244 2 3.16691 2H3.58745C5.25618 2 6.69293 3.17761 7.02019 4.8136L7.1575 5.5H21.2489C22.3754 5.5 23.2086 6.54856 22.9539 7.64573L21.4334 14.1943C21.1879 15.2516 20.2456 16 19.16 16H8.79117C7.67869 16 6.72085 15.2149 6.50268 14.1243L4.7317 5.2712C4.62261 4.72587 4.14369 4.33333 3.58745 4.33333H3.16691C2.52244 4.33333 2 3.811 2 3.16667Z" fill="#BDBDBD"/>
<path d="M9.00144 23C10.2904 23 11.3353 21.9553 11.3353 20.6667C11.3353 19.378 10.2904 18.3333 9.00144 18.3333C7.71251 18.3333 6.66763 19.378 6.66763 20.6667C6.66763 21.9553 7.71251 23 9.00144 23Z" fill="#BDBDBD"/>
<path d="M18.3367 23C19.6256 23 20.6705 21.9553 20.6705 20.6667C20.6705 19.378 19.6256 18.3333 18.3367 18.3333C17.0478 18.3333 16.0029 19.378 16.0029 20.6667C16.0029 21.9553 17.0478 23 18.3367 23Z" fill="#BDBDBD"/>
</g>
</g>
</svg>
