<svg width="22" height="20" viewBox="0 0 22 20" fill="none" xmlns="http://www.w3.org/2000/svg">
<path id="&#226;&#134;&#179; Icon Color" fill-rule="evenodd" clip-rule="evenodd" d="M10.1545 4.34007C9.21077 2.57099 7.29989 2.06997 5.83342 2.5278C2.94329 3.44011 1.76653 6.57433 2.73334 9.53525C3.52553 11.9447 5.32866 13.9908 7.15274 15.4513C8.05852 16.1765 8.94663 16.7387 9.67609 17.1149C10.0413 17.3031 10.3555 17.439 10.6034 17.5254C10.7271 17.5685 10.8261 17.5965 10.9007 17.613C10.9617 17.6265 10.9933 17.6294 11.0006 17.63C11.0076 17.6294 11.0388 17.6264 11.0992 17.6129C11.174 17.5962 11.2735 17.5677 11.398 17.5239C11.6475 17.436 11.9639 17.2981 12.3317 17.1073C13.0662 16.7263 13.9602 16.1581 14.87 15.4288C16.7038 13.9586 18.503 11.9139 19.2658 9.54024L19.2672 9.5358C20.2343 6.57808 19.0514 3.44238 16.1604 2.52846C14.6894 2.07748 12.8153 2.54475 11.8454 4.34369C11.6798 4.65096 11.3537 4.84294 10.9988 4.84218C10.6439 4.84142 10.3188 4.64804 10.1545 4.34007ZM11.0011 2.27633C9.45134 0.59418 7.12196 0.162192 5.25137 0.746923L5.24901 0.747664C1.06865 2.06613 -0.27359 6.46852 0.914482 10.1056L0.915007 10.1072C1.86019 12.9829 3.95765 15.3086 5.94366 16.8987C6.94303 17.6989 7.93744 18.3317 8.78615 18.7693C9.21002 18.9878 9.60882 19.1635 9.96259 19.2869C10.2949 19.4028 10.6636 19.5 11.0009 19.5C11.3404 19.5 11.7115 19.4006 12.0444 19.2834C12.3995 19.1583 12.8001 18.9805 13.2258 18.7596C14.0783 18.3174 15.0775 17.6791 16.08 16.8754C18.07 15.28 20.1704 12.9534 21.0869 10.1036C22.2757 6.46425 20.92 2.06517 16.7427 0.747664L16.7362 0.745623C14.868 0.170935 12.5596 0.576452 11.0011 2.27633Z" fill="#858585"/>
</svg>
