<svg width="18" height="16" viewBox="0 0 18 16" fill="none" xmlns="http://www.w3.org/2000/svg">
<path id="&#226;&#134;&#179; Icon Color" fill-rule="evenodd" clip-rule="evenodd" d="M8.27526 3.23374C7.46637 1.74399 5.82848 1.32208 4.5715 1.70763C2.09425 2.47588 1.08559 5.11523 1.91429 7.60863C2.59331 9.63764 4.13885 11.3607 5.70234 12.5906C6.47873 13.2013 7.23997 13.6747 7.86522 13.9915C8.17825 14.15 8.44756 14.2644 8.66004 14.3372C8.76606 14.3735 8.85092 14.3971 8.91488 14.411C8.96715 14.4223 8.99423 14.4247 9.00052 14.4253C9.00655 14.4247 9.03326 14.4223 9.08503 14.4109C9.14914 14.3968 9.23442 14.3728 9.34113 14.3359C9.555 14.2619 9.82621 14.1458 10.1414 13.9851C10.7711 13.6643 11.5373 13.1858 12.3171 12.5716C13.8889 11.3335 15.4311 9.61168 16.085 7.61284L16.0862 7.60909C16.9151 5.11838 15.9012 2.47779 13.4232 1.70818C12.1623 1.32841 10.556 1.7219 9.72465 3.23679C9.58266 3.49554 9.30319 3.65721 8.999 3.65657C8.69481 3.65593 8.41607 3.49309 8.27526 3.23374ZM9.00094 1.49586C7.67258 0.0793098 5.67596 -0.28447 4.0726 0.207935L4.07058 0.208559C0.487414 1.31884 -0.663077 5.02613 0.35527 8.08893L0.35572 8.09028C1.16588 10.5119 2.9637 12.4704 4.666 13.8095C5.5226 14.4833 6.37495 15.0162 7.10241 15.3847C7.46573 15.5687 7.80756 15.7166 8.11079 15.8205C8.39567 15.9181 8.71167 16 9.00079 16C9.29178 16 9.60986 15.9163 9.8952 15.8176C10.1996 15.7123 10.5429 15.5625 10.9079 15.3765C11.6386 15.0041 12.495 14.4666 13.3543 13.7898C15.06 12.4463 16.8604 10.4871 17.6459 8.08727C18.6649 5.02253 17.5029 1.31804 13.9223 0.208559L13.9167 0.20684C12.3155 -0.277108 10.3368 0.0643811 9.00094 1.49586Z" fill="#B3B3B3"/>
</svg>
