<svg width="24" height="24" viewBox="0 0 24 24" fill="none" xmlns="http://www.w3.org/2000/svg">
<g id="Card/&#208;&#161;atalog/Variant5">
<path id="&#226;&#134;&#170;&#239;&#184;&#143; Icon Color" d="M13.125 4.5C13.125 3.87868 12.6213 3.375 12 3.375C11.3787 3.375 10.875 3.87868 10.875 4.5V10.875H4.5C3.87868 10.875 3.375 11.3787 3.375 12C3.375 12.6213 3.87868 13.125 4.5 13.125H10.875V19.5C10.875 20.1213 11.3787 20.625 12 20.625C12.6213 20.625 13.125 20.1213 13.125 19.5V13.125H19.5C20.1213 13.125 20.625 12.6213 20.625 12C20.625 11.3787 20.1213 10.875 19.5 10.875H13.125V4.5Z" fill="#0C0C0D"/>
</g>
</svg>
