<svg width="17" height="22" viewBox="0 0 17 22" fill="none" xmlns="http://www.w3.org/2000/svg">
<g id="Group 2910">
<path id="Vector 9" d="M5 8L5 4.5C5 2.567 6.567 1 8.5 1V1C10.433 1 12 2.567 12 4.5L12 8" stroke="#BDBDBD" stroke-width="1.5" stroke-linecap="round"/>
<path id="Rectangle 1" d="M0.722246 9.76442C0.827507 7.98118 0.880138 7.08955 1.45796 6.54484C2.03577 6.00012 2.92895 6.00012 4.7153 6.00012H12.2847C14.0711 6.00012 14.9642 6.00012 15.542 6.54484C16.1199 7.08955 16.1725 7.98118 16.2778 9.76442L16.875 19.8823C16.9336 20.8754 16.9629 21.372 16.6669 21.6861C16.3708 22.0001 15.8734 22.0001 14.8785 22.0001H2.12154C1.12663 22.0001 0.629179 22.0001 0.333127 21.6861C0.0370745 21.372 0.066387 20.8754 0.125012 19.8823L0.722246 9.76442Z" fill="#BDBDBD"/>
</g>
</svg>
