<svg width="16" height="17" viewBox="0 0 16 17" fill="none" xmlns="http://www.w3.org/2000/svg">
<path id="Vector" fill-rule="evenodd" clip-rule="evenodd" d="M14.6823 5.39006L11.3044 4.89221C11.1262 4.85727 10.973 4.74372 10.9005 4.59524L9.38034 1.38541C9.37827 1.38104 9.37412 1.37668 9.37412 1.37012C9.22915 1.08845 9.0034 0.852623 8.71967 0.688856C8.3593 0.485785 7.94509 0.446481 7.54745 0.570944C7.14773 0.701957 6.82258 0.988004 6.62375 1.38541L5.10359 4.58651C5.02697 4.74372 4.87578 4.85727 4.71838 4.89002L1.29698 5.39442C0.955258 5.46211 0.654954 5.62806 0.427138 5.87699C0.141331 6.18487 -0.00985657 6.5932 0.000498741 7.02554C0.00878299 7.4557 0.176539 7.85092 0.462346 8.13479L2.93105 10.6546C3.04703 10.7682 3.09881 10.9297 3.06981 11.1001L2.48784 14.6221C2.43607 14.9584 2.49199 15.3165 2.64732 15.6397C2.83992 16.024 3.16094 16.3035 3.55237 16.4279C3.70149 16.476 3.85267 16.5 4.00179 16.5C4.25239 16.5 4.49884 16.4345 4.72252 16.3078L7.75041 14.6549C7.90781 14.5719 8.09421 14.5741 8.23918 14.6483L11.2774 16.3078C11.5902 16.4782 11.9257 16.5328 12.2343 16.4716C12.6402 16.4061 12.9964 16.1812 13.2387 15.834C13.481 15.4846 13.5784 15.0545 13.5121 14.6156L12.9322 11.1022C12.9053 10.9319 12.955 10.766 13.0751 10.6481L15.5189 8.15226C15.7778 7.90988 15.9456 7.57143 15.987 7.20241C16.0947 6.32025 15.5231 5.52544 14.6823 5.39006Z" fill="#FFCB20"/>
</svg>
